<?xml version="1.0" standalone="no"?><!DOCTYPE svg PUBLIC "-//W3C//DTD SVG 1.1//EN" "http://www.w3.org/Graphics/SVG/1.1/DTD/svg11.dtd"><svg t="1607874751580" class="icon" viewBox="0 0 1024 1024" version="1.1" xmlns="http://www.w3.org/2000/svg" p-id="5142" xmlns:xlink="http://www.w3.org/1999/xlink" width="200" height="200"><defs><style type="text/css"></style></defs><path d="M362.61 170.64h-31.995c-17.67 0-31.995 14.325-31.995 31.995l-1 287.955c0 117.802 96.498 213.3 214.3 213.3s213.3-95.498 213.3-213.3V202.635c0-17.67-14.325-31.995-31.995-31.995H426.6v149.31h-63.99V170.64zM479.925 853.2v-87.146C341.853 750.191 234.63 632.912 234.63 490.59c-70.681 0-127.98-57.299-127.98-127.98v-63.99c0-35.34 28.65-63.99 63.99-63.99h63.99v-31.995c0-53.011 42.974-95.985 95.985-95.985h362.61c53.011 0 95.985 42.974 95.985 95.985v31.995h63.99c35.34 0 63.99 28.65 63.99 63.99v63.99c0 70.681-57.299 127.98-127.98 127.98 0 142.322-107.223 259.601-245.295 275.464V853.2H682.56v63.99H341.28V853.2h138.645zM789.21 426.6c35.34 0 63.99-28.65 63.99-63.99v-63.99h-63.99V426.6z m-554.58 0V298.62h-63.99v63.99c0 35.34 28.65 63.99 63.99 63.99z" p-id="5143"></path></svg>