<?xml version="1.0" standalone="no"?><!DOCTYPE svg PUBLIC "-//W3C//DTD SVG 1.1//EN" "http://www.w3.org/Graphics/SVG/1.1/DTD/svg11.dtd"><svg t="1607001338582" class="icon" viewBox="0 0 1229 1024" version="1.1" xmlns="http://www.w3.org/2000/svg" p-id="2791" xmlns:xlink="http://www.w3.org/1999/xlink" width="240.0390625" height="200"><defs><style type="text/css"></style></defs><path d="M1063.7396623 428.96611014l-437.43607197 211.14840618a68.99117075 68.99117075 0 0 1-60.05099514-0.08434122L130.16598352 428.2913804a65.95488446 65.95488446 0 0 1-37.53187124-59.16541114c0-25.00719104 14.54887188-47.90585001 37.44753003-59.12324092L565.36701199 97.16749698a68.56946466 68.56946466 0 0 1 60.26184778-1e-8l438.23731476 213.3412795c23.10951159 11.25956113 37.53187124 34.1582201 37.53187125 59.29192335 0 25.13370245-14.63321311 48.03236142-37.65838349 59.16541032zM595.43468018 156.29073792L160.27582273 369.04162805l436.04444063 211.69662368 437.35173075-211.06406414-438.23731393-213.38344967zM140.07608518 483.02887393l456.37069043 236.61947351 456.49720184-235.94474294a34.20039112 34.20039112 0 0 1 45.6286355 13.7898001 32.68224756 32.68224756 0 0 1-14.08499479 44.57436823l-472.35336383 244.12584841a34.91729187 34.91729187 0 0 1-15.81399096 3.87969929 34.79077963 34.79077963 0 0 1-15.85616117-3.87969929L108.321591 541.43521329a32.72441858 32.72441858 0 0 1-14.00065274-44.74305148 34.28473233 34.28473233 0 0 1 45.75514691-13.66328788z m2.61457937 137.94017048l453.62959881 241.67995147 455.14774237-241.13173316a34.32690253 34.32690253 0 0 1 45.96599955 13.32592301 32.68224756 32.68224756 0 0 1-13.62111768 44.82739271l-471.25692717 249.73454388a34.579927 34.579927 0 0 1-32.3448827-0.12651224L110.34578186 679.03801889a32.72441858 32.72441858 0 0 1-13.53677563-44.8695629 34.1582201 34.1582201 0 0 1 45.88165832-13.19941158z" p-id="2792"></path></svg>