<?xml version="1.0" standalone="no"?><!DOCTYPE svg PUBLIC "-//W3C//DTD SVG 1.1//EN" "http://www.w3.org/Graphics/SVG/1.1/DTD/svg11.dtd"><svg t="1607874835725" class="icon" viewBox="0 0 1024 1024" version="1.1" xmlns="http://www.w3.org/2000/svg" p-id="5278" xmlns:xlink="http://www.w3.org/1999/xlink" width="200" height="200"><defs><style type="text/css"></style></defs><path d="M625.777778 500.622222c0-6.280533-5.097244-11.377778-11.377778-11.377778L466.488889 489.244444c-6.280533 0-11.377778 5.097244-11.377778 11.377778l0 364.088889c0 6.280533 5.097244 11.377778 11.377778 11.377778l147.911111 0c6.280533 0 11.377778-5.097244 11.377778-11.377778L625.777778 500.622222zM916.445867 332.8l-113.0496-197.176889c-5.415822-9.386667-14.290489-10.092089-19.706311-0.705422l-113.026844 198.2464C665.247289 342.539378 669.684622 352.711111 680.516267 352.711111L716.8 352.711111l0 506.311111c0 6.257778 7.918933 17.066667 14.176711 17.066667l125.155556 0C862.390044 876.088889 864.711111 865.28 864.711111 859.022222L864.711111 352.711111l41.8816 0C917.424356 352.711111 921.861689 342.186667 916.445867 332.8zM185.298489 343.483733c0-44.873956 36.374756-81.248711 81.248711-81.248711s81.248711 36.374756 81.248711 81.248711c0 44.873956-36.374756 81.248711-81.248711 81.248711S185.298489 388.357689 185.298489 343.483733zM269.095822 841.955556c0 22.755556-14.142578 37.000533-35.680711 34.952533C214.641778 875.133156 204.8 857.304178 204.8 838.439822L204.8 650.410667c0 15.451022-18.500267 27.830044-34.144711 27.830044-17.282844 0-34.121956-14.6432-34.121956-29.320533l0-70.735644 0-63.192178C136.533333 480.096711 161.985422 455.111111 196.881067 455.111111l27.830044 0 45.511111 79.644444 45.511111-79.644444 27.181511 0C377.810489 455.111111 409.6 480.096711 409.6 515.003733l0 63.192178 0 70.735644c0 14.677333-16.839111 29.320533-34.121956 29.320533-15.644444 0-34.144711-12.379022-34.144711-27.830044l0 188.029156c0 18.864356-13.0048 36.681956-31.789511 38.468267C288.005689 878.956089 270.700089 864.711111 270.700089 841.955556L269.095822 841.955556z" p-id="5279"></path></svg>