<?xml version="1.0" standalone="no"?><!DOCTYPE svg PUBLIC "-//W3C//DTD SVG 1.1//EN" "http://www.w3.org/Graphics/SVG/1.1/DTD/svg11.dtd"><svg t="1608459559960" class="icon" viewBox="0 0 1024 1024" version="1.1" xmlns="http://www.w3.org/2000/svg" p-id="3739" xmlns:xlink="http://www.w3.org/1999/xlink" width="200" height="200"><defs><style type="text/css"></style></defs><path d="M891.184 956.071l-8.11-4.055c-19.264-11.153-31.43-13.18-38.527-13.18s-18.25 2.027-37.513 13.18l-8.111 4.055-8.111-3.041c-22.305-7.097-42.582-19.264-59.818-35.485l-7.097-5.07v-9.125c0-24.332-4.055-34.47-6.083-38.526-2.028-4.056-9.125-12.167-29.402-24.333l-8.111-4.055-2.028-9.125c-2.027-11.153-4.055-23.319-4.055-35.485 0-11.153 1.014-22.305 3.041-33.458l2.028-9.124 8.111-5.07c19.263-11.152 27.374-20.277 30.416-26.36 3.041-6.083 7.097-17.236 8.11-39.54v-9.125l7.098-6.084c17.235-15.208 37.513-26.36 58.804-34.47l8.11-3.043 8.112 4.056c19.263 11.152 31.43 13.18 38.526 13.18s18.25-2.028 38.527-13.18l8.11-4.056 8.112 3.042c21.29 7.097 41.568 18.25 58.804 33.457l7.097 6.084v9.124c0 24.333 4.055 34.472 7.097 38.527 3.041 5.07 11.152 13.18 30.416 25.347l7.097 4.055 2.027 8.111c3.042 12.166 4.056 24.333 4.056 36.499 0 11.152-1.014 22.305-3.042 33.457l-2.027 9.125-8.111 5.07c-19.264 11.152-27.375 20.277-30.416 26.36-3.042 6.083-7.097 17.236-8.111 39.54v9.125l-8.111 7.097c-17.236 15.208-37.513 26.36-58.804 34.472l-8.11 2.027z m-127.746-62.86c10.138 8.112 20.277 14.195 31.43 18.25 18.249-9.124 34.47-14.194 49.679-14.194 14.194 0 30.415 4.056 49.679 14.194 11.152-4.055 21.29-10.138 30.416-17.235 1.013-20.277 5.069-36.5 12.166-49.68s19.263-24.332 36.499-36.498c1.014-6.084 1.014-11.153 1.014-17.236 0-7.097-1.014-13.18-2.028-20.277-15.208-10.139-27.374-20.278-34.471-31.43-8.111-12.166-12.167-28.388-14.194-50.693-9.125-7.097-19.264-13.18-30.416-17.236-18.25 9.125-34.471 14.194-49.68 14.194s-30.415-4.055-49.679-14.194c-11.152 4.056-21.29 10.139-30.415 17.236-1.014 20.277-5.07 36.499-12.167 49.68-7.097 13.18-19.263 24.332-36.499 36.498v17.236c0 6.083 0 13.18 1.014 19.263 18.25 11.153 29.402 23.319 36.5 34.471 7.096 11.153 10.138 26.36 11.152 47.652z m81.109-37.512c-38.527 0-69.957-31.43-69.957-69.956 0-38.527 31.43-69.957 69.957-69.957s69.956 31.43 69.956 69.957c1.014 37.512-30.416 69.956-69.956 69.956z m0-100.372c-16.222 0-29.402 13.18-29.402 29.402s13.18 29.402 29.402 29.402 29.402-13.18 29.402-29.402-12.167-29.402-29.402-29.402zM988.515 1024H35.485c-17.235 0-30.416-13.18-30.416-30.416s13.18-30.416 30.416-30.416h953.03c17.235 0 30.416 13.18 30.416 30.416S1005.75 1024 988.515 1024z" p-id="3740"></path><path d="M882.06 1024H557.623V325.45l22.305-6.084c13.18-3.041 26.36-5.069 40.554-5.069h148.024c79.081 0 143.968 58.804 143.968 131.802v121.663c0 17.236-13.18 30.416-30.416 30.416s-30.415-13.18-30.415-30.416V446.1c0-39.54-37.513-70.97-83.137-70.97H618.455v588.04H882.06c17.236 0 30.416 13.18 30.416 30.415S899.295 1024 882.06 1024z" p-id="3741"></path><path d="M603.248 1013.861H65.9V101.386C65.901 45.624 111.525 0 167.287 0h334.574c55.763 0 101.387 45.624 101.387 101.386v912.475zM126.733 953.03h415.683V101.386c0-22.305-18.25-40.554-40.555-40.554H167.287c-22.305 0-40.554 18.25-40.554 40.554V953.03z" p-id="3742"></path><path d="M283.881 288.95H182.495c-17.236 0-30.416-13.18-30.416-30.415s13.18-30.416 30.416-30.416h101.386c17.236 0 30.416 13.18 30.416 30.416s-13.18 30.415-30.416 30.415z m202.772 0H385.267c-17.235 0-30.416-13.18-30.416-30.415s13.18-30.416 30.416-30.416h101.386c17.236 0 30.416 13.18 30.416 30.416s-13.18 30.415-30.416 30.415zM283.881 542.416H182.495c-17.236 0-30.416-13.18-30.416-30.416s13.18-30.416 30.416-30.416h101.386c17.236 0 30.416 13.18 30.416 30.416s-13.18 30.416-30.416 30.416z m202.772 0H385.267c-17.235 0-30.416-13.18-30.416-30.416s13.18-30.416 30.416-30.416h101.386c17.236 0 30.416 13.18 30.416 30.416s-13.18 30.416-30.416 30.416zM283.881 795.88H182.495c-17.236 0-30.416-13.18-30.416-30.416s13.18-30.415 30.416-30.415h101.386c17.236 0 30.416 13.18 30.416 30.415s-13.18 30.416-30.416 30.416z m202.772 0H385.267c-17.235 0-30.416-13.18-30.416-30.416s13.18-30.415 30.416-30.415h101.386c17.236 0 30.416 13.18 30.416 30.415s-13.18 30.416-30.416 30.416zM729.98 613.386c-17.235 0-30.416-13.18-30.416-30.416V441.03c0-17.236 13.18-30.416 30.416-30.416s30.416 13.18 30.416 30.416v141.94c0 17.236-13.18 30.416-30.416 30.416z" p-id="3743"></path></svg>