<?xml version="1.0" standalone="no"?><!DOCTYPE svg PUBLIC "-//W3C//DTD SVG 1.1//EN" "http://www.w3.org/Graphics/SVG/1.1/DTD/svg11.dtd"><svg t="1607234205631" class="icon" viewBox="0 0 1024 1024" version="1.1" xmlns="http://www.w3.org/2000/svg" p-id="3967" xmlns:xlink="http://www.w3.org/1999/xlink" width="200" height="200"><defs><style type="text/css"></style></defs><path d="M527.445272 58.661028c-0.065492-0.064468-0.134053-0.130983-0.201591-0.196475-9.279341-9.019421-24.251334-8.931416-33.385365 0.196475l-145.869229 145.894811c-7.78122 7.779174-7.779174 20.392446 0 28.170596 7.78122 7.77815 20.394493 7.77815 28.172643-0.001023l134.491087-134.509507 137.185452 137.204895c3.889587 3.889587 8.987698 5.834892 14.086833 5.834892s10.1952-1.944282 14.086833-5.833869c7.78122-7.77815 7.78122-20.391423 0.002047-28.17162L527.445272 58.661028z" p-id="3968"></path><path d="M508.658394 90.196255c-11.002588 0-19.922748 8.918114-19.922748 19.919678l0 273.459139c0 11.002588 8.92016 19.920702 19.922748 19.920702s19.922748-8.918114 19.922748-19.920702l0-273.459139C528.580119 99.114368 519.660982 90.196255 508.658394 90.196255z" p-id="3969"></path><path d="M1021.511831 622.11798 1021.511831 622.11798c0-11.722996 0-23.447015-11.726066-35.167964l-5.858428-5.861498-189.189873-215.316927c-5.858428-5.862521-11.719926-11.721973-23.441898-11.721973l-103.456257 0c-17.584494 0-30.365588 6.424316-30.365588 24.009833 0 17.582447 12.781094 19.769252 30.365588 19.769252l105.507986 0L943.557388 571.98007 793.349341 571.98007c-23.448038 0-46.89403 17.58654-52.754504 41.028439l-29.308513 85.307921c-5.860475 23.445992-29.306466 41.028439-52.752458 41.028439l-281.34576 0c-23.445992 0-53.249785-17.582447-59.112306-41.028439l-32.483832-89.546456c-11.722996-17.582447-6.372128-33.521464-49.078789-35.166941l-143.850246 0 143.850246-167.792541 99.646488 0c17.582447 0 29.30442-2.187829 29.30442-19.769252 0-17.585517-11.721973-25.072025-29.30442-25.072025l-98.157577 0c-5.862521 0-17.58654 5.862521-23.447015 11.725042l-194.48446 214.255759c0 0-17.585517 23.444968-17.585517 35.167964l0 0c0 0 0 0 0 5.861498l0 293.070802c0 29.306466 11.294231 51.197032 40.600697 51.197032L980.912158 972.247312c29.306466 0 40.600697-21.89159 40.600697-51.197032L1021.512854 622.11798C1021.511831 627.979478 1021.511831 627.979478 1021.511831 622.11798L1021.511831 622.11798zM980.912158 927.405011l-937.824315 0 0-315.319525 202.962551 0 29.306466 93.782943c17.58654 46.889937 49.078789 76.762291 101.833293 76.762291l269.622764 0c52.754504 0 93.78192-24.009833 111.366414-76.762291l29.306466-93.782943L980.912158 612.085486l0 308.963771L980.912158 927.405011z" p-id="3970"></path><path d="M511.999488 627.979478 511.999488 627.979478 511.999488 627.979478Z" p-id="3971"></path></svg>