<?xml version="1.0" standalone="no"?><!DOCTYPE svg PUBLIC "-//W3C//DTD SVG 1.1//EN" "http://www.w3.org/Graphics/SVG/1.1/DTD/svg11.dtd"><svg t="1606544738810" class="icon" viewBox="0 0 1024 1024" version="1.1" xmlns="http://www.w3.org/2000/svg" p-id="15562" xmlns:xlink="http://www.w3.org/1999/xlink" width="200" height="200"><defs><style type="text/css"></style></defs><path d="M556.1 455.3c0-10.3 5.8-19.7 14.8-24.2 38.6-19 64.3-56 64.3-98.3 0-61.8-55.2-112-123.3-112-46.2 0-86.3 23.1-107.4 57.1-9.2 14.6-14.6 31.4-15.7 49.1v17c0 2.9 0.7 5.8 1.8 8.5 3.4 8.1 11.2 13.9 20.6 13.9 9.4 0 17.5-5.8 20.9-13.9 1.1-2.5 1.6-4.9 1.8-7.6V327c3.6-34.3 37-61.4 78-61.4 43.5 0 78.5 30.2 78.5 67.2 0 23.7-14.1 44.6-35.9 56.4l-6.1 3.4c-22.9 12.5-37.2 36.7-37.2 62.9v34c0 12.3 10.1 22.4 22.4 22.4 12.3 0 22.4-10.1 22.4-22.4v-34.2z m381.5-212.1c12.4 0 22.4-10 22.4-22.4v-112c0-24.6-20.2-44.8-44.8-44.8H108.8C84.2 64 64 84.2 64 108.8v806.4c0 24.6 20.2 44.8 44.8 44.8h806.4c24.6 0 44.8-20.2 44.8-44.8V400c0-12.4-10-22.4-22.4-22.4-12.4 0-22.4 10-22.4 22.4v336H288c-12.3 0-22.4 10.1-22.4 22.4 0 12.3 10.1 22.4 22.4 22.4h627.2v112c0 12.3-10.1 22.4-22.4 22.4H131.2c-12.3 0-22.4-10.1-22.4-22.4V131.2c0-12.3 10.1-22.4 22.4-22.4h761.6c12.3 0 22.4 10.1 22.4 22.4v89.6c0 12.4 10 22.4 22.4 22.4z m-404 336c-12.4 0-22.4 10-22.4 22.4 0 12.4 10 22.4 22.4 22.4s22.4-10 22.4-22.4c0-12.4-10-22.4-22.4-22.4z" fill="#000000" p-id="15563"></path></svg>