<?xml version="1.0" standalone="no"?><!DOCTYPE svg PUBLIC "-//W3C//DTD SVG 1.1//EN" "http://www.w3.org/Graphics/SVG/1.1/DTD/svg11.dtd"><svg t="1606535738394" class="icon" viewBox="0 0 1024 1024" version="1.1" xmlns="http://www.w3.org/2000/svg" p-id="4059" xmlns:xlink="http://www.w3.org/1999/xlink" width="200" height="200"><defs><style type="text/css"></style></defs><path d="M338.707692 1016.123077H39.384615c-15.753846 0-31.507692-15.753846-31.507692-31.507692V39.384615C7.876923 23.630769 23.630769 7.876923 39.384615 7.876923h945.23077c15.753846 0 31.507692 15.753846 31.507692 31.507692v192.984616h-63.015385V70.892308H70.892308v882.215384h267.815384v63.015385z" p-id="4060"></path><path d="M535.630769 850.707692c-90.584615 0-177.230769-35.446154-240.246154-98.461538-66.953846-63.015385-102.4-149.661538-102.4-240.246154s35.446154-177.230769 98.461539-244.184615c63.015385-66.953846 149.661538-102.4 240.246154-102.4h3.938461c90.584615 0 177.230769 35.446154 240.246154 98.461538 66.953846 63.015385 102.4 149.661538 102.4 240.246154s-35.446154 177.230769-98.461538 244.184615c-63.015385 66.953846-149.661538 102.4-244.184616 102.4z m0-610.461538c-74.830769 0-141.784615 27.569231-192.984615 78.769231s-78.769231 118.153846-78.769231 189.046153 27.569231 137.846154 78.769231 189.046154 118.153846 78.769231 189.046154 78.769231c70.892308 0 137.846154-27.569231 189.046154-78.769231 51.2-51.2 78.769231-118.153846 78.76923-189.046154 0-70.892308-27.569231-137.846154-78.76923-189.046153-47.261538-51.2-114.215385-78.769231-185.107693-78.769231z" p-id="4061"></path><path d="M736.492308 760.123077l55.138461-51.2 189.046154 189.046154-51.2 51.2z" p-id="4062"></path></svg>