<?xml version="1.0" standalone="no"?><!DOCTYPE svg PUBLIC "-//W3C//DTD SVG 1.1//EN" "http://www.w3.org/Graphics/SVG/1.1/DTD/svg11.dtd"><svg t="1606544528637" class="icon" viewBox="0 0 1024 1024" version="1.1" xmlns="http://www.w3.org/2000/svg" p-id="12548" xmlns:xlink="http://www.w3.org/1999/xlink" width="200" height="200"><defs><style type="text/css"></style></defs><path d="M789.255706 0H192.063513v227.63083h597.192193z m-56.907707 169.368177H248.971221V56.907708h483.376778z" p-id="12549"></path><path d="M897.65134 967.092292H99.588488V142.269269h92.475025V85.361561H84.684089A43.358253 43.358253 0 0 0 42.680781 128.719815V982.335428a43.358253 43.358253 0 0 0 42.003308 41.664572h824.823023A43.358253 43.358253 0 0 0 952.865366 982.335428V229.324512h-55.214026z" p-id="12550"></path><path d="M924.411512 113.815415m-56.907708 0a56.907708 56.907708 0 1 0 113.815415 0 56.907708 56.907708 0 1 0-113.815415 0Z" p-id="12551"></path><path d="M782.142243 426.807807a28.115117 28.115117 0 0 0-28.453854-28.453854H213.403903a28.453854 28.453854 0 0 0 0 56.907708h541.978168a28.453854 28.453854 0 0 0 26.760172-28.453854zM554.511413 568.738339H213.403903a28.453854 28.453854 0 0 0 0 56.907708h341.10751a28.453854 28.453854 0 0 0 0-56.907708zM554.511413 767.915316H213.403903a28.453854 28.453854 0 0 0 0 56.907707h341.10751a28.453854 28.453854 0 0 0 0-56.907707z" p-id="12552"></path></svg>