<?xml version="1.0" standalone="no"?><!DOCTYPE svg PUBLIC "-//W3C//DTD SVG 1.1//EN" "http://www.w3.org/Graphics/SVG/1.1/DTD/svg11.dtd"><svg t="1607001491613" class="icon" viewBox="0 0 1024 1024" version="1.1" xmlns="http://www.w3.org/2000/svg" p-id="3599" xmlns:xlink="http://www.w3.org/1999/xlink" width="200" height="200"><defs><style type="text/css"></style></defs><path d="M389.12 366.592c-79.872 0-145.408 65.536-145.408 145.408S309.248 657.408 389.12 657.408 534.528 591.872 534.528 512 468.992 366.592 389.12 366.592z m0 260.096c-63.488 0-114.688-51.2-114.688-114.688s51.2-114.688 114.688-114.688 114.688 51.2 114.688 114.688-51.2 114.688-114.688 114.688z" p-id="3600"></path><path d="M727.04 434.176l-73.728-12.288s-4.096-1.024-6.144-8.192c0-1.024-1.024-2.048-1.024-2.048l-3.072-5.12-2.048-7.168c-3.072-8.192-12.288-12.288-19.456-9.216-8.192 3.072-12.288 12.288-9.216 19.456l3.072 8.192s0 1.024 1.024 1.024l3.072 5.12c6.144 19.456 22.528 26.624 29.696 27.648l74.752 12.288v95.232l-75.776 12.288c-2.048 0-21.504 5.12-29.696 27.648l-3.072 6.144v1.024l-2.048 5.12c-9.216 17.408-3.072 33.792 2.048 40.96l45.056 61.44-66.56 68.608-62.464-44.032c-1.024-1.024-3.072-2.048-5.12-2.048-3.072-1.024-25.6-6.144-45.056 3.072l-5.12 3.072c-19.456 6.144-26.624 22.528-27.648 29.696l-12.288 74.752h-94.208l-12.288-75.776c0-2.048-6.144-21.504-27.648-29.696l-12.288-5.12c-17.408-9.216-33.792-3.072-40.96 1.024l-62.464 44.032-66.56-66.56 44.032-63.488c1.024-2.048 11.264-19.456 1.024-39.936l-6.144-13.312c-6.144-19.456-22.528-26.624-29.696-27.648l-74.752-12.288v-94.208l76.8-12.288c2.048 0 21.504-5.12 29.696-27.648l3.072-6.144v-1.024l2.048-5.12c9.216-17.408 3.072-33.792-2.048-40.96l-44.032-62.464 66.56-66.56 63.488 44.032c2.048 1.024 19.456 11.264 39.936 1.024l13.312-6.144c19.456-6.144 26.624-22.528 27.648-29.696l12.288-74.752h94.208l12.288 76.8c0 2.048 5.12 21.504 27.648 29.696l6.144 3.072h1.024l6.144 2.048c8.192 3.072 16.384-2.048 19.456-9.216 3.072-8.192-2.048-16.384-9.216-19.456l-12.288-5.12h-1.024c-6.144-2.048-8.192-6.144-8.192-7.168l-12.288-73.728c-1.024-15.36-13.312-27.648-28.672-27.648h-98.304c-15.36 0-27.648 12.288-28.672 27.648L299.008 245.76c0 1.024-1.024 5.12-8.192 7.168-1.024 0-2.048 1.024-2.048 1.024l-13.312 6.144c-5.12 3.072-9.216 1.024-10.24 1.024L204.8 218.112c-11.264-10.24-28.672-9.216-38.912 1.024l-69.632 69.632c-10.24 10.24-11.264 27.648-1.024 38.912l43.008 61.44c1.024 1.024 2.048 4.096-1.024 9.216 0 1.024-1.024 2.048-1.024 3.072l-5.12 12.288v1.024c-2.048 6.144-6.144 8.192-7.168 8.192l-73.728 12.288c-15.36 1.024-27.648 13.312-27.648 28.672v98.304c0 15.36 12.288 27.648 27.648 28.672l73.728 12.288c1.024 0 5.12 1.024 7.168 8.192 0 1.024 1.024 2.048 1.024 2.048l6.144 13.312c3.072 5.12 1.024 9.216 1.024 10.24l-43.008 60.416c-10.24 11.264-9.216 28.672 1.024 38.912l69.632 69.632c10.24 10.24 27.648 11.264 38.912 1.024l61.44-43.008c1.024-1.024 4.096-2.048 9.216 1.024 1.024 0 1.024 1.024 2.048 1.024l14.336 5.12c6.144 2.048 8.192 6.144 8.192 7.168l12.288 72.704c1.024 15.36 13.312 27.648 28.672 27.648H440.32c15.36 0 27.648-12.288 28.672-27.648l12.288-73.728s1.024-4.096 8.192-6.144c1.024 0 2.048-1.024 2.048-1.024l6.144-3.072c6.144-3.072 15.36-2.048 20.48-1.024l59.392 41.984c11.264 10.24 28.672 9.216 38.912-1.024L686.08 737.28c10.24-10.24 11.264-27.648 1.024-38.912l-44.032-60.416s-2.048-4.096 1.024-9.216c0-1.024 1.024-2.048 1.024-3.072l5.12-12.288v-1.024c2.048-6.144 6.144-8.192 7.168-8.192l72.704-12.288c15.36-1.024 27.648-13.312 27.648-28.672v-99.328c-3.072-16.384-15.36-28.672-30.72-29.696z" p-id="3601"></path><path d="M548.864 363.52H563.2c1.024 0 2.048-1.024 2.048-2.048V199.68l56.32 161.792c0 1.024 1.024 2.048 2.048 2.048h16.384c1.024 0 2.048-1.024 2.048-2.048l56.32-161.792v161.792c0 1.024 1.024 2.048 2.048 2.048H716.8c1.024 0 2.048-1.024 2.048-2.048V161.792c0-1.024-1.024-2.048-2.048-2.048h-25.6c-1.024 0-2.048 1.024-2.048 2.048L632.832 327.68l-58.368-166.912c0-1.024-1.024-2.048-2.048-2.048h-25.6c-1.024 0-2.048 1.024-2.048 2.048v199.68c0 3.072 3.072 4.096 4.096 3.072zM846.848 267.264c8.192-11.264 12.288-25.6 12.288-40.96 0-10.24-2.048-21.504-6.144-30.72-5.12-11.264-10.24-18.432-17.408-23.552-5.12-4.096-11.264-7.168-18.432-9.216-6.144-2.048-15.36-3.072-25.6-3.072h-47.104c-1.024 0-2.048 1.024-2.048 2.048v199.68c0 1.024 1.024 2.048 2.048 2.048h17.408c1.024 0 2.048-1.024 2.048-2.048V184.32h22.528c12.288 0 20.48 1.024 25.6 2.048 4.096 1.024 7.168 3.072 11.264 6.144 4.096 4.096 7.168 8.192 8.192 14.336 2.048 6.144 3.072 12.288 3.072 18.432 0 11.264-3.072 20.48-9.216 26.624-6.144 7.168-14.336 10.24-24.576 10.24h-16.384c-1.024 0-2.048 0-2.048 1.024v2.048l52.224 96.256c0 1.024 1.024 1.024 2.048 1.024h20.48c1.024 0 2.048 0 2.048-1.024v-2.048L819.2 286.72c10.24-2.048 20.48-8.192 27.648-19.456zM980.992 189.44c-4.096-8.192-10.24-16.384-18.432-21.504-6.144-3.072-11.264-5.12-17.408-6.144-5.12-1.024-14.336-2.048-25.6-2.048h-36.864c-1.024 0-2.048 1.024-2.048 2.048s0 2.048 1.024 2.048v197.632c0 1.024 1.024 2.048 2.048 2.048H901.12c1.024 0 2.048-1.024 2.048-2.048v-80.896h20.48c10.24 0 18.432 0 25.6-2.048 6.144-2.048 11.264-5.12 17.408-8.192 6.144-5.12 11.264-12.288 16.384-21.504 3.072-9.216 5.12-19.456 5.12-28.672 0-12.288-3.072-22.528-7.168-30.72z m-16.384 29.696c0 12.288-3.072 21.504-9.216 26.624-5.12 5.12-15.36 8.192-28.672 8.192h-22.528v-71.68h20.48c14.336 0 24.576 3.072 30.72 8.192 5.12 6.144 9.216 15.36 9.216 28.672z" p-id="3602"></path></svg>