<?xml version="1.0" standalone="no"?><!DOCTYPE svg PUBLIC "-//W3C//DTD SVG 1.1//EN" "http://www.w3.org/Graphics/SVG/1.1/DTD/svg11.dtd"><svg t="1606542564185" class="icon" viewBox="0 0 1024 1024" version="1.1" xmlns="http://www.w3.org/2000/svg" p-id="5455" xmlns:xlink="http://www.w3.org/1999/xlink" width="200" height="200"><defs><style type="text/css"></style></defs><path d="M562.005333 740.864V529.578667l167.936-96.938667c16.384-9.386667 21.845333-30.378667 12.458667-46.592a33.928533 33.928533 0 0 0-46.592-12.458667l-185.002667 106.837334c-10.581333 6.144-17.066667 17.408-17.066666 29.525333v230.912c0 18.773333 15.36 34.133333 34.133333 34.133333s34.133333-15.36 34.133333-34.133333z" p-id="5456"></path><path d="M887.808 254.634667L577.365333 75.434667a99.293867 99.293867 0 0 0-99.328 0l-181.589333 104.96c-16.384 9.386667-21.845333 30.378667-12.458667 46.592 9.386667 16.384 30.208 21.845333 46.592 12.458666l181.589334-104.96c9.557333-5.461333 21.504-5.461333 31.061333 0l310.272 179.2c9.557333 5.461333 15.530667 15.872 15.530667 26.794667v358.229333c0 11.093333-5.973333 21.333333-15.530667 26.794667l-310.272 179.2c-9.557333 5.461333-21.504 5.461333-31.061333 0l-310.272-179.2c-9.557333-5.461333-15.530667-15.872-15.530667-26.965333V353.28l66.730667 38.058667c37.205333 21.162667 74.410667 42.325333 117.589333 67.413333 16.384 9.386667 37.205333 3.754667 46.592-12.458667 9.386667-16.384 3.754667-37.205333-12.458667-46.592-43.349333-25.088-80.725333-46.250667-117.930666-67.584-37.205333-21.162667-74.410667-42.325333-117.589334-67.413333-10.581333-6.144-23.552-6.144-34.133333 0s-17.066667 17.408-17.066667 29.525333v404.821334c0 35.328 18.944 68.266667 49.664 86.016l310.272 179.2c15.36 8.874667 32.426667 13.312 49.664 13.312a98.986667 98.986667 0 0 0 49.664-13.312L887.637333 785.066667a99.908267 99.908267 0 0 0 49.664-86.016v-358.4c0.170667-35.328-18.944-68.266667-49.493333-86.016z" p-id="5457"></path></svg>